<?xml version="1.0" encoding="UTF-8"?>
<!DOCTYPE svg PUBLIC "-//W3C//DTD SVG 1.1//EN" "http://www.w3.org/Graphics/SVG/1.1/DTD/svg11.dtd">
<svg xmlns="http://www.w3.org/2000/svg" version="1.1" width="621px" height="308px" style="shape-rendering:geometricPrecision; text-rendering:geometricPrecision; image-rendering:optimizeQuality; fill-rule:evenodd; clip-rule:evenodd" xmlns:xlink="http://www.w3.org/1999/xlink">
<g><path style="opacity:0.967" fill="#8b246c" d="M 60.5,-0.5 C 70.1667,-0.5 79.8333,-0.5 89.5,-0.5C 90.475,9.75131 90.8083,20.0846 90.5,30.5C 80.2509,30.8194 70.0842,30.4861 60,29.5C 59.1934,19.4229 59.36,9.42294 60.5,-0.5 Z"/></g>
<g><path style="opacity:0.939" fill="#1f9bc9" d="M 120.5,-0.5 C 130.5,-0.5 140.5,-0.5 150.5,-0.5C 151.617,9.45311 151.783,19.4531 151,29.5C 140.667,30.8333 130.333,30.8333 120,29.5C 119.217,19.4531 119.383,9.45311 120.5,-0.5 Z"/></g>
<g><path style="opacity:0.963" fill="#26215a" d="M 620.5,69.5 C 620.5,75.5 620.5,81.5 620.5,87.5C 614.169,99.0033 605.503,108.503 594.5,116C 578.271,126.617 561.271,135.951 543.5,144C 567.509,146.666 581.842,159.833 586.5,183.5C 585.518,193.793 582.018,203.127 576,211.5C 558.857,232.157 538.357,248.657 514.5,261C 478.517,280.827 440.184,293.494 399.5,299C 355.878,301.612 324.378,283.446 305,244.5C 294.333,259.159 284.667,274.492 276,290.5C 273,294.5 270,294.5 267,290.5C 262.38,280.534 261.38,270.201 264,259.5C 273.878,242.297 284.544,225.63 296,209.5C 296.821,206.446 296.655,203.446 295.5,200.5C 262.093,201.772 229.093,206.272 196.5,214C 173.114,244.214 151.114,275.381 130.5,307.5C 128.5,307.5 126.5,307.5 124.5,307.5C 114.761,300.824 110.928,291.49 113,279.5C 124.144,261.393 136.644,244.227 150.5,228C 121.322,236.415 93.3222,247.915 66.5,262.5C 63.4058,261.326 62.0725,258.993 62.5,255.5C 64.6115,236.567 74.6115,224.067 92.5,218C 120.252,207.978 148.585,199.978 177.5,194C 195.833,171.667 214.167,149.333 232.5,127C 228.286,120.742 228.119,114.575 232,108.5C 250.802,87.3644 270.635,67.1977 291.5,48C 300.071,45.1923 305.238,48.359 307,57.5C 308.091,63.0969 307.424,68.4302 305,73.5C 275.118,111.047 245.618,148.88 216.5,187C 242.332,183.456 268.332,182.123 294.5,183C 300.687,183.41 306.687,184.41 312.5,186C 349.41,132.74 389.744,82.0732 433.5,34C 436.128,32.3745 438.461,30.3745 440.5,28C 445.463,27.2666 448.63,29.4333 450,34.5C 451.542,39.0445 452.376,43.7112 452.5,48.5C 471.968,40.9565 491.968,35.1232 512.5,31C 537.12,25.664 561.453,26.664 585.5,34C 602.837,40.5018 614.504,52.3352 620.5,69.5 Z M 439.5,127.5 C 417.494,145.673 397.661,166.006 380,188.5C 377.383,196.766 380.216,202.266 388.5,205C 392.167,205.667 395.833,205.667 399.5,205C 401.286,204.215 402.786,203.049 404,201.5C 414.621,185.202 427.121,170.368 441.5,157C 462.718,137.401 485.385,119.734 509.5,104C 519.047,93.9823 517.047,87.3156 503.5,84C 500.833,83.3333 498.167,83.3333 495.5,84C 477.287,90.4392 459.287,97.4392 441.5,105C 434.768,107.244 427.935,109.078 421,110.5C 415.892,109.617 414.558,106.95 417,102.5C 425.1,93.3508 434.933,86.5175 446.5,82C 481.927,66.2264 518.927,56.2264 557.5,52C 569.043,50.8099 580.376,51.8099 591.5,55C 602.835,59.9951 605.002,67.4951 598,77.5C 583.911,88.9086 568.744,98.7419 552.5,107C 526.225,119.721 500.059,132.554 474,145.5C 468.976,155.986 469.476,166.152 475.5,176C 477.833,176.667 480.167,176.667 482.5,176C 503.086,164.351 525.086,159.351 548.5,161C 560.205,164.912 564.039,172.745 560,184.5C 558.066,188.759 555.732,192.759 553,196.5C 529.119,221.711 500.953,240.878 468.5,254C 441.888,265.778 414.055,272.278 385,273.5C 368.346,274.09 352.846,270.256 338.5,262C 328.291,253.419 321.791,242.585 319,229.5C 318.294,227.029 318.627,224.695 320,222.5C 345.976,186.517 373.476,151.684 402.5,118C 403.332,117.312 403.998,117.479 404.5,118.5C 406.914,123.413 410.247,127.579 414.5,131C 423.192,132.192 431.525,131.025 439.5,127.5 Z"/></g>
<g><path style="opacity:0.94" fill="#f5904a" d="M 30.5,60.5 C 29.8333,60.5 29.5,60.8333 29.5,61.5C 19.4478,61.7838 9.4478,61.4504 -0.5,60.5C -0.5,50.5 -0.5,40.5 -0.5,30.5C 9.42294,29.36 19.4229,29.1934 29.5,30C 30.4861,40.0842 30.8194,50.2509 30.5,60.5 Z"/></g>
<g><path style="opacity:0.953" fill="#7e2a72" d="M 30.5,60.5 C 40.5,60.5 50.5,60.5 60.5,60.5C 60.6665,70.5056 60.4998,80.5056 60,90.5C 50.2496,91.4856 40.4163,91.819 30.5,91.5C 30.5,90.8333 30.1667,90.5 29.5,90.5C 29.5,80.8333 29.5,71.1667 29.5,61.5C 29.5,60.8333 29.8333,60.5 30.5,60.5 Z"/></g>
<g><path style="opacity:0.935" fill="#c976af" d="M 120.5,60.5 C 130.506,60.3335 140.506,60.5002 150.5,61C 151.651,70.4223 151.818,79.9223 151,89.5C 150.5,90 150,90.5 149.5,91C 140.167,91.6667 130.833,91.6667 121.5,91C 121,90.5 120.5,90 120,89.5C 119.194,79.756 119.361,70.0893 120.5,60.5 Z"/></g>
<g><path style="opacity:0.967" fill="#9e7cb7" d="M -0.5,90.5 C 9.5,90.5 19.5,90.5 29.5,90.5C 30.1667,90.5 30.5,90.8333 30.5,91.5C 30.819,101.416 30.4856,111.25 29.5,121C 19.4229,121.807 9.42294,121.64 -0.5,120.5C -0.5,110.5 -0.5,100.5 -0.5,90.5 Z"/></g>
<g><path style="opacity:0.96" fill="#259ac8" d="M 90.5,120.5 C 90.5,130.833 90.5,141.167 90.5,151.5C 80.4944,151.666 70.4944,151.5 60.5,151C 59.1667,141 59.1667,131 60.5,121C 70.4944,120.5 80.4944,120.334 90.5,120.5 Z"/></g>
<g><path style="opacity:0.975" fill="#f5904a" d="M 90.5,120.5 C 100.5,120.5 110.5,120.5 120.5,120.5C 120.5,130.833 120.5,141.167 120.5,151.5C 110.5,151.5 100.5,151.5 90.5,151.5C 90.5,141.167 90.5,130.833 90.5,120.5 Z"/></g>
</svg>
