<?xml version="1.0" encoding="UTF-8"?>
<!DOCTYPE svg PUBLIC "-//W3C//DTD SVG 1.1//EN" "http://www.w3.org/Graphics/SVG/1.1/DTD/svg11.dtd">
<svg xmlns="http://www.w3.org/2000/svg" version="1.1" width="843px" height="200px" style="shape-rendering:geometricPrecision; text-rendering:geometricPrecision; image-rendering:optimizeQuality; fill-rule:evenodd; clip-rule:evenodd" xmlns:xlink="http://www.w3.org/1999/xlink">
<g><path style="opacity:0.949" fill="#fefffe" d="M 268.5,-0.5 C 269.5,-0.5 270.5,-0.5 271.5,-0.5C 274.768,3.11135 276.601,7.44468 277,12.5C 277.892,18.6886 277.226,24.6886 275,30.5C 265.033,38.7998 255.699,47.7998 247,57.5C 211.052,98.2397 178.886,141.74 150.5,188C 147.472,189.14 145.305,188.306 144,185.5C 141.736,179.338 141.07,173.004 142,166.5C 149.814,151.854 158.647,137.854 168.5,124.5C 143.43,123.533 118.764,126.366 94.5,133C 78.0989,155.007 62.0989,177.173 46.5,199.5C 45.8333,199.5 45.1667,199.5 44.5,199.5C 36.8352,195.165 33.6685,188.498 35,179.5C 43.0304,166.795 51.8638,154.628 61.5,143C 41.2877,148.633 21.9543,156.633 3.5,167C 2.07153,167.579 0.738195,167.412 -0.5,166.5C -0.5,163.5 -0.5,160.5 -0.5,157.5C 2.05333,147.107 8.38667,139.94 18.5,136C 38.7036,128.449 59.3702,122.449 80.5,118C 93.1188,103.259 105.619,88.426 118,73.5C 118.638,72.3914 119.138,71.2247 119.5,70C 116.333,64.173 117.166,59.0063 122,54.5C 136.044,39.9544 150.544,25.9544 165.5,12.5C 169.435,13.2679 171.935,15.6012 173,19.5C 174.794,23.5259 174.794,27.5259 173,31.5C 151.713,58.5761 130.546,85.7428 109.5,113C 123.717,111.399 138.051,110.232 152.5,109.5C 160.925,110.147 169.258,110.981 177.5,112C 201.805,77.6883 227.639,44.5217 255,12.5C 259.395,7.93568 263.895,3.60235 268.5,-0.5 Z"/></g>
<g><path style="opacity:0.942" fill="#fefffe" d="M 626.5,-0.5 C 628.833,-0.5 631.167,-0.5 633.5,-0.5C 650.487,-0.666849 664.987,5.33315 677,17.5C 687.582,33.6678 685.082,47.5012 669.5,59C 657.324,67.9269 644.324,75.5935 630.5,82C 646.322,85.4876 655.656,95.1543 658.5,111C 657.977,118.569 655.477,125.403 651,131.5C 638.984,144.924 625.151,156.09 609.5,165C 581.232,181.149 550.899,190.649 518.5,193.5C 494.995,193.084 476.662,183.251 463.5,164C 456.179,163.345 452.179,159.345 451.5,152C 452.329,147.859 452.996,143.693 453.5,139.5C 452.525,133.518 452.358,127.518 453,121.5C 455.885,119.115 458.885,119.115 462,121.5C 467.419,112.993 473.086,104.66 479,96.5C 479.688,95.6683 479.521,95.0016 478.5,94.5C 470.882,100.616 463.715,107.283 457,114.5C 444.244,128.586 432.244,143.252 421,158.5C 417.662,161.318 413.829,162.151 409.5,161C 405.747,159.326 404.247,156.493 405,152.5C 407.07,147.057 409.07,141.724 411,136.5C 400.782,145.363 389.615,152.863 377.5,159C 355.56,165.946 342.394,158.113 338,135.5C 329.422,144.083 320.255,151.916 310.5,159C 304.329,164.139 298.829,163.639 294,157.5C 289.442,147.919 287.776,137.919 289,127.5C 275.555,139.943 260.721,150.443 244.5,159C 227.515,165.563 215.015,160.73 207,144.5C 204.016,133.888 205.35,123.888 211,114.5C 226.457,91.3762 245.624,71.8762 268.5,56C 280.649,48.4042 290.482,50.5708 298,62.5C 300.385,72.9619 298.051,82.2952 291,90.5C 282.045,101.792 271.545,111.292 259.5,119C 249.926,124.178 240.926,123.344 232.5,116.5C 225.611,124.264 222.111,133.264 222,143.5C 225.415,146.948 229.249,147.448 233.5,145C 256.631,136.175 277.465,123.675 296,107.5C 311.291,77.5724 328.958,49.2391 349,22.5C 354.468,16.0311 360.301,9.86442 366.5,4C 372.981,-0.684688 379.148,-0.184688 385,5.5C 392.699,15.2348 394.366,25.9015 390,37.5C 384.239,45.2646 377.739,52.4313 370.5,59C 352.955,73.5471 335.121,87.7138 317,101.5C 309.873,113.089 304.373,125.422 300.5,138.5C 300.865,139.902 301.699,140.902 303,141.5C 318.59,133.952 332.756,124.286 345.5,112.5C 360.645,90.188 379.312,71.3547 401.5,56C 415.882,47.7926 426.049,51.2926 432,66.5C 432.539,75.549 429.873,83.549 424,90.5C 413.301,104.245 400.134,114.745 384.5,122C 377.365,122.899 371.031,121.066 365.5,116.5C 358.611,124.264 355.111,133.264 355,143.5C 356.552,144.966 358.386,145.966 360.5,146.5C 369.921,144.124 378.921,140.624 387.5,136C 401.703,128.068 415.036,118.901 427.5,108.5C 438.884,87.555 451.884,67.7217 466.5,49C 472.828,47.1251 478.328,48.6251 483,53.5C 483.667,54.8333 483.667,56.1667 483,57.5C 470.803,71.2999 460.136,85.9666 451,101.5C 461.101,89.3961 471.935,77.8961 483.5,67C 487.311,63.2601 491.644,60.2601 496.5,58C 505.481,56.6259 510.981,60.4592 513,69.5C 513.888,74.6178 513.555,79.6178 512,84.5C 496.628,101.583 482.962,119.917 471,139.5C 469.921,142.063 469.421,144.729 469.5,147.5C 473.856,146.489 477.856,144.656 481.5,142C 491.124,134.711 500.458,127.045 509.5,119C 513.553,111.073 518.72,103.906 525,97.5C 533.833,89.3333 542.667,81.1667 551.5,73C 546.893,73.7174 542.226,74.0508 537.5,74C 528.269,66.2108 522.935,56.2108 521.5,44C 522.608,39.8786 524.941,36.5453 528.5,34C 558.255,14.0274 590.921,2.52736 626.5,-0.5 Z M 631.5,17.5 C 641.233,17.1091 650.9,17.6091 660.5,19C 668.481,21.131 670.981,25.9644 668,33.5C 659.126,41.6891 649.293,48.5225 638.5,54C 619.411,63.8782 600.077,73.2115 580.5,82C 574.944,88.5254 574.111,95.6921 578,103.5C 579.062,104.899 580.395,105.899 582,106.5C 595.225,99.5354 609.225,95.2021 624,93.5C 641.747,95.9152 645.413,104.582 635,119.5C 606.806,147.684 572.973,165.517 533.5,173C 516.62,176.199 500.287,174.532 484.5,168C 481.537,166.039 478.871,163.706 476.5,161C 491.008,151.167 504.342,139.834 516.5,127C 519.833,126.667 523.167,126.333 526.5,126C 534.708,114.119 544.041,103.119 554.5,93C 571.137,78.0241 588.637,64.1907 607,51.5C 609.751,46.663 608.584,43.163 603.5,41C 601.256,40.0943 598.923,39.5943 596.5,39.5C 578.281,46.1069 559.947,52.4402 541.5,58.5C 537.927,58.5731 536.76,56.9065 538,53.5C 543.723,47.1121 550.557,42.2788 558.5,39C 582.077,28.8591 606.41,21.6925 631.5,17.5 Z M 334.5,74.5 C 345.443,57.3752 357.776,41.2086 371.5,26C 374.36,23.6397 377.36,21.473 380.5,19.5C 381.724,21.8978 381.558,24.2311 380,26.5C 366.063,43.6052 350.896,59.6052 334.5,74.5 Z M 277.5,71.5 C 278.5,71.5 279.5,71.5 280.5,71.5C 280.412,76.0128 278.912,80.0128 276,83.5C 269.795,91.3727 262.628,98.2061 254.5,104C 249.726,107.729 244.393,109.062 238.5,108C 249.483,93.5118 262.483,81.3452 277.5,71.5 Z M 410.5,71.5 C 411.5,71.5 412.5,71.5 413.5,71.5C 413.66,73.1992 413.494,74.8659 413,76.5C 405.449,89.718 394.949,99.8847 381.5,107C 378.262,108.368 374.928,108.701 371.5,108C 382.483,93.5118 395.483,81.3452 410.5,71.5 Z"/></g>
<g><path style="opacity:0.95" fill="#8b246c" d="M 767.5,15.5 C 775.833,15.5 784.167,15.5 792.5,15.5C 792.666,23.84 792.5,32.1733 792,40.5C 784,41.8333 776,41.8333 768,40.5C 767.5,32.1733 767.334,23.84 767.5,15.5 Z"/></g>
<g><path style="opacity:0.927" fill="#1f9bc9" d="M 842.5,16.5 C 842.5,24.5 842.5,32.5 842.5,40.5C 834.548,41.6032 826.548,41.7698 818.5,41C 817.204,37.0913 816.537,32.9246 816.5,28.5C 816.515,24.2515 816.848,20.0848 817.5,16C 825.912,15.199 834.245,15.3656 842.5,16.5 Z"/></g>
<g><path style="opacity:0.978" fill="#f58f4b" d="M 743.5,64.5 C 743.5,65.1667 743.167,65.5 742.5,65.5C 734.5,65.5 726.5,65.5 718.5,65.5C 718.5,57.1667 718.5,48.8333 718.5,40.5C 726.833,40.5 735.167,40.5 743.5,40.5C 743.5,48.5 743.5,56.5 743.5,64.5 Z"/></g>
<g><path style="opacity:0.927" fill="#7d2a73" d="M 743.5,64.5 C 751.507,64.3336 759.507,64.5003 767.5,65C 768.833,73.3333 768.833,81.6667 767.5,90C 759.507,90.4997 751.507,90.6664 743.5,90.5C 743.5,89.8333 743.167,89.5 742.5,89.5C 742.5,81.5 742.5,73.5 742.5,65.5C 743.167,65.5 743.5,65.1667 743.5,64.5 Z"/></g>
<g><path style="opacity:0.924" fill="#c976af" d="M 842.5,65.5 C 842.5,73.5 842.5,81.5 842.5,89.5C 834.245,90.6344 825.912,90.801 817.5,90C 816.167,81.6667 816.167,73.3333 817.5,65C 825.912,64.199 834.245,64.3656 842.5,65.5 Z"/></g>
<g><path style="opacity:0.952" fill="#9e7cb7" d="M 742.5,89.5 C 743.167,89.5 743.5,89.8333 743.5,90.5C 743.666,98.5069 743.5,106.507 743,114.5C 735,115.833 727,115.833 719,114.5C 718.5,106.173 718.334,97.84 718.5,89.5C 726.5,89.5 734.5,89.5 742.5,89.5 Z"/></g>
<g><path style="opacity:0.978" fill="#1f9bc9" d="M 792.5,114.5 C 792.5,122.833 792.5,131.167 792.5,139.5C 784.167,139.5 775.833,139.5 767.5,139.5C 767.5,131.167 767.5,122.833 767.5,114.5C 775.833,114.5 784.167,114.5 792.5,114.5 Z"/></g>
<g><path style="opacity:0.978" fill="#f5904a" d="M 792.5,114.5 C 800.833,114.5 809.167,114.5 817.5,114.5C 817.5,122.833 817.5,131.167 817.5,139.5C 809.167,139.5 800.833,139.5 792.5,139.5C 792.5,131.167 792.5,122.833 792.5,114.5 Z"/></g>
</svg>
